<mxfile host="app.diagrams.net" modified="2024-06-10T09:09:22.829Z" agent="Mozilla/5.0 (Windows NT 10.0; Win64; x64) AppleWebKit/537.36 (KHTML, like Gecko) Chrome/125.0.0.0 Safari/537.36" etag="rkrFXnDHS-evKgg6f42E" version="24.5.2" type="github">
  <diagram name="Strona-1" id="LbnRYfNBaTt90aAsc_Gf">
    <mxGraphModel dx="2074" dy="1098" grid="1" gridSize="10" guides="1" tooltips="1" connect="1" arrows="1" fold="1" page="1" pageScale="1" pageWidth="1169" pageHeight="827" math="0" shadow="0">
      <root>
        <mxCell id="0" />
        <mxCell id="1" parent="0" />
        <mxCell id="OwbiVAhhjAJPn3UbdMq3-8" style="edgeStyle=orthogonalEdgeStyle;rounded=0;orthogonalLoop=1;jettySize=auto;html=1;exitX=0.5;exitY=0;exitDx=0;exitDy=0;entryX=0.5;entryY=1;entryDx=0;entryDy=0;" edge="1" parent="1" source="zb9_-PMpnMrJBiRj5QZa-1" target="zb9_-PMpnMrJBiRj5QZa-2">
          <mxGeometry relative="1" as="geometry" />
        </mxCell>
        <mxCell id="zb9_-PMpnMrJBiRj5QZa-1" value="&lt;div style=&quot;&quot;&gt;&lt;span style=&quot;background-color: initial;&quot;&gt;&lt;font style=&quot;font-size: 24px;&quot;&gt;&lt;b&gt;&lt;i&gt;Contact&lt;/i&gt;&lt;/b&gt;&lt;/font&gt;&lt;/span&gt;&lt;/div&gt;&lt;div style=&quot;&quot;&gt;&lt;span style=&quot;background-color: initial; font-size: 18px;&quot;&gt;&lt;b&gt;Attr&lt;/b&gt;: name, phone_number, email.&lt;/span&gt;&lt;/div&gt;&lt;div&gt;&lt;span style=&quot;font-size: 18px; background-color: initial;&quot;&gt;&lt;b&gt;Methods&lt;/b&gt;: &lt;/span&gt;&lt;span style=&quot;font-size: 18px; background-color: initial;&quot;&gt;init&lt;/span&gt;&lt;span style=&quot;font-size: 18px; background-color: initial;&quot;&gt;, edit_phone, edit_email.&lt;/span&gt;&lt;/div&gt;" style="rounded=0;whiteSpace=wrap;html=1;align=left;" parent="1" vertex="1">
          <mxGeometry x="80" y="640" width="280" height="120" as="geometry" />
        </mxCell>
        <mxCell id="OwbiVAhhjAJPn3UbdMq3-7" style="edgeStyle=orthogonalEdgeStyle;rounded=0;orthogonalLoop=1;jettySize=auto;html=1;exitX=0.5;exitY=0;exitDx=0;exitDy=0;entryX=0.5;entryY=1;entryDx=0;entryDy=0;" edge="1" parent="1" source="zb9_-PMpnMrJBiRj5QZa-2" target="zb9_-PMpnMrJBiRj5QZa-3">
          <mxGeometry relative="1" as="geometry" />
        </mxCell>
        <mxCell id="zb9_-PMpnMrJBiRj5QZa-2" value="&lt;font style=&quot;font-size: 24px;&quot;&gt;&lt;b style=&quot;&quot;&gt;&lt;i&gt;AddressBook&lt;/i&gt;&lt;/b&gt;&lt;/font&gt;&lt;div&gt;&lt;span style=&quot;font-size: 18px; background-color: initial;&quot;&gt;&lt;b&gt;Attr&lt;/b&gt;: contacts.&lt;/span&gt;&lt;/div&gt;&lt;div&gt;&lt;span style=&quot;font-size: 18px; background-color: initial;&quot;&gt;&lt;b&gt;Methods&lt;/b&gt;: add_contact, remove_contact, find_contact&lt;/span&gt;&lt;/div&gt;" style="rounded=0;whiteSpace=wrap;html=1;align=left;" parent="1" vertex="1">
          <mxGeometry x="80" y="440" width="280" height="120" as="geometry" />
        </mxCell>
        <mxCell id="OwbiVAhhjAJPn3UbdMq3-14" style="edgeStyle=orthogonalEdgeStyle;rounded=0;orthogonalLoop=1;jettySize=auto;html=1;exitX=1;exitY=0.5;exitDx=0;exitDy=0;entryX=0.5;entryY=1;entryDx=0;entryDy=0;" edge="1" parent="1" source="zb9_-PMpnMrJBiRj5QZa-3" target="zb9_-PMpnMrJBiRj5QZa-5">
          <mxGeometry relative="1" as="geometry" />
        </mxCell>
        <mxCell id="zb9_-PMpnMrJBiRj5QZa-3" value="&lt;div style=&quot;text-align: left;&quot;&gt;&lt;span style=&quot;background-color: initial;&quot;&gt;&lt;b style=&quot;&quot;&gt;&lt;i style=&quot;&quot;&gt;&lt;font style=&quot;font-size: 24px;&quot;&gt;ConsoleView&lt;/font&gt;&lt;/i&gt;&lt;/b&gt;&lt;/span&gt;&lt;/div&gt;&lt;div style=&quot;text-align: left;&quot;&gt;&lt;font style=&quot;font-size: 18px;&quot;&gt;&lt;b&gt;Methods&lt;/b&gt;: display_contacts, get_user_input, show_message&lt;br&gt;&lt;/font&gt;&lt;/div&gt;" style="rounded=0;whiteSpace=wrap;html=1;" parent="1" vertex="1">
          <mxGeometry x="80" y="240" width="280" height="120" as="geometry" />
        </mxCell>
        <mxCell id="OwbiVAhhjAJPn3UbdMq3-9" style="edgeStyle=orthogonalEdgeStyle;rounded=0;orthogonalLoop=1;jettySize=auto;html=1;exitX=0;exitY=0.5;exitDx=0;exitDy=0;entryX=1;entryY=0.5;entryDx=0;entryDy=0;" edge="1" parent="1" source="zb9_-PMpnMrJBiRj5QZa-4" target="zb9_-PMpnMrJBiRj5QZa-2">
          <mxGeometry relative="1" as="geometry" />
        </mxCell>
        <mxCell id="zb9_-PMpnMrJBiRj5QZa-4" value="&lt;div style=&quot;text-align: left;&quot;&gt;&lt;span style=&quot;background-color: initial;&quot;&gt;&lt;b style=&quot;&quot;&gt;&lt;i style=&quot;&quot;&gt;&lt;font style=&quot;font-size: 24px;&quot;&gt;Commands&lt;/font&gt;&lt;/i&gt;&lt;/b&gt;&lt;/span&gt;&lt;/div&gt;&lt;div style=&quot;text-align: left;&quot;&gt;&lt;font style=&quot;font-size: 18px;&quot;&gt;&lt;b&gt;Methods&lt;/b&gt;: add_contact_command, remove_contact_command, edit_contact_command&lt;br&gt;&lt;/font&gt;&lt;/div&gt;" style="rounded=0;whiteSpace=wrap;html=1;" parent="1" vertex="1">
          <mxGeometry x="470" y="440" width="280" height="120" as="geometry" />
        </mxCell>
        <mxCell id="zb9_-PMpnMrJBiRj5QZa-5" value="&lt;div style=&quot;text-align: left;&quot;&gt;&lt;span style=&quot;background-color: initial;&quot;&gt;&lt;b style=&quot;&quot;&gt;&lt;font style=&quot;font-size: 24px;&quot;&gt;Utils&lt;/font&gt;&lt;/b&gt;&lt;/span&gt;&lt;/div&gt;&lt;div style=&quot;text-align: left;&quot;&gt;&lt;span style=&quot;font-size: 18px; background-color: initial;&quot;&gt;&lt;b&gt;Methods&lt;/b&gt;: validate_email, format_phone_number, parse_user_input&lt;/span&gt;&lt;br&gt;&lt;/div&gt;" style="rounded=0;whiteSpace=wrap;html=1;" parent="1" vertex="1">
          <mxGeometry x="480" y="40" width="280" height="120" as="geometry" />
        </mxCell>
        <mxCell id="OwbiVAhhjAJPn3UbdMq3-5" style="edgeStyle=orthogonalEdgeStyle;rounded=0;orthogonalLoop=1;jettySize=auto;html=1;exitX=1;exitY=0.5;exitDx=0;exitDy=0;entryX=0;entryY=0.5;entryDx=0;entryDy=0;" edge="1" parent="1" source="OwbiVAhhjAJPn3UbdMq3-3" target="zb9_-PMpnMrJBiRj5QZa-5">
          <mxGeometry relative="1" as="geometry" />
        </mxCell>
        <mxCell id="OwbiVAhhjAJPn3UbdMq3-3" value="&lt;font style=&quot;font-size: 36px;&quot;&gt;Interface View&lt;/font&gt;&lt;div&gt;&lt;br&gt;&lt;/div&gt;" style="rounded=0;whiteSpace=wrap;html=1;" vertex="1" parent="1">
          <mxGeometry x="80" y="40" width="280" height="120" as="geometry" />
        </mxCell>
        <mxCell id="OwbiVAhhjAJPn3UbdMq3-12" value="1" style="endArrow=open;html=1;endSize=12;startArrow=diamondThin;startSize=14;startFill=0;edgeStyle=orthogonalEdgeStyle;align=left;verticalAlign=bottom;rounded=0;exitX=0.75;exitY=1;exitDx=0;exitDy=0;entryX=0.75;entryY=0;entryDx=0;entryDy=0;" edge="1" parent="1" source="zb9_-PMpnMrJBiRj5QZa-2" target="zb9_-PMpnMrJBiRj5QZa-1">
          <mxGeometry x="-1" y="3" relative="1" as="geometry">
            <mxPoint x="330" y="360" as="sourcePoint" />
            <mxPoint x="490" y="360" as="targetPoint" />
          </mxGeometry>
        </mxCell>
        <mxCell id="OwbiVAhhjAJPn3UbdMq3-13" value="agg" style="edgeLabel;html=1;align=center;verticalAlign=middle;resizable=0;points=[];" vertex="1" connectable="0" parent="OwbiVAhhjAJPn3UbdMq3-12">
          <mxGeometry x="0.025" y="-1" relative="1" as="geometry">
            <mxPoint as="offset" />
          </mxGeometry>
        </mxCell>
        <mxCell id="OwbiVAhhjAJPn3UbdMq3-15" value="" style="endArrow=block;dashed=1;endFill=0;endSize=12;html=1;rounded=0;entryX=0.5;entryY=1;entryDx=0;entryDy=0;exitX=0.5;exitY=0;exitDx=0;exitDy=0;" edge="1" parent="1" source="zb9_-PMpnMrJBiRj5QZa-3" target="OwbiVAhhjAJPn3UbdMq3-3">
          <mxGeometry width="160" relative="1" as="geometry">
            <mxPoint x="330" y="360" as="sourcePoint" />
            <mxPoint x="490" y="360" as="targetPoint" />
          </mxGeometry>
        </mxCell>
        <mxCell id="OwbiVAhhjAJPn3UbdMq3-16" value="realisation" style="edgeLabel;html=1;align=center;verticalAlign=middle;resizable=0;points=[];" vertex="1" connectable="0" parent="OwbiVAhhjAJPn3UbdMq3-15">
          <mxGeometry x="0.05" relative="1" as="geometry">
            <mxPoint as="offset" />
          </mxGeometry>
        </mxCell>
      </root>
    </mxGraphModel>
  </diagram>
</mxfile>
